# xmcd
#
# Track frame offsets:
#	150
#	15890
#	30415
#	44535
#	58088
#	72883
#	89702
#	102364
#	117414
#	134476
#	151241
#	165496
#	179346
#	195113
#	207370
#	219789
#	234584
#	249854
#	264433
#	279523
#
# Disc length: 3893 seconds
#
# Revision: 0
# Processed by: cddbd v1.5.1PL0 Copyright (c) Steve Scherf et al.
# Submitted via: audiograbber 1.81.03
#
DISCID=0c0f3314
DTITLE=Vários - Raizes Sertanejas Vol.1 - As 20 Mais
DYEAR=2000
DGENRE=Pop
TTITLE0=Lourenço e Lourival - Meu reino encantado
TTITLE1=Belmonte e Amaral - Saudade de minha terra
TTITLE2=Tião Carrero e Pardinho - Encantos da natureza
TTITLE3=Cezar e Paulinho - Meu endereço
TTITLE4=João Paulo e Daniel - Poeira da estrada
TTITLE5=Goiano e Paranaense - O doutor e o caipira
TTITLE6=Jed e Jefferson - Saco d'ouro
TTITLE7=Pena Branca e Xavantinho - Cuitelinho
TTITLE8=Peão Carrero e Zé Paulo - Porta do mundo
TTITLE9=Tião Carrero e Pardinho - Lá onde eu moro
TTITLE10=Dino Franco e Mouraf - Cheiro de relva
TTITLE11=Nenete e Dourinho - Recordação
TTITLE12=Sulino e Marrueiro - Quando a lua vem surgindo
TTITLE13=Belmonte e Amaral - Terra querida
TTITLE14=Zé Minero e Mirandinha - Cenário do meu sertão
TTITLE15=Nonô e Naná - Uma casa de caboclo
TTITLE16=Duo Glacial - Poeira
TTITLE17=Zé do Rancho e Zé do Pinho - Meu sítio, meu paraíso
TTITLE18=Irídio e Irineu - Laço da saudade
TTITLE19=Sérgio Reis - Lá no pé da serra
EXTD=
EXTT0=
EXTT1=
EXTT2=
EXTT3=
EXTT4=
EXTT5=
EXTT6=
EXTT7=
EXTT8=
EXTT9=
EXTT10=
EXTT11=
EXTT12=
EXTT13=
EXTT14=
EXTT15=
EXTT16=
EXTT17=
EXTT18=
EXTT19=
PLAYORDER=
